<?xml version="1.0" standalone="no"?><!DOCTYPE svg PUBLIC "-//W3C//DTD SVG 1.1//EN" "http://www.w3.org/Graphics/SVG/1.1/DTD/svg11.dtd"><svg t="1528125521445" class="icon" style="" viewBox="0 0 1024 1024" version="1.1" xmlns="http://www.w3.org/2000/svg" p-id="3450" xmlns:xlink="http://www.w3.org/1999/xlink" width="200" height="200"><defs><style type="text/css"></style></defs><path d="M516.7616 932.5568H215.5008c-40.448 0-73.2672-32.768-73.2672-73.216V164.2496c0-40.448 32.768-73.2672 73.216-73.2672h300.2368a36.6592 36.6592 0 0 1 0 73.216H215.5008v695.04h301.1072a36.6592 36.6592 0 0 1 0.1536 73.2672z" p-id="3451" fill="#707070"></path><path d="M359.5776 493.9776l86.3744 86.3744a36.6592 36.6592 0 1 1-51.8144 51.8144L255.9488 493.9776 394.1376 355.84A36.6592 36.6592 0 0 1 445.952 407.6544L359.5776 493.9776z" p-id="3452" fill="#707070"></path><path d="M832.1536 528.5888H332.4928v-73.216h508.8256c35.3792 0 64.1024 28.672 64.1024 64.0512v105.8304a36.6592 36.6592 0 0 1-73.2672 0v-96.6656z" p-id="3453" fill="#707070"></path></svg>